<?xml version="1.0" encoding="UTF-8" standalone="no"?><svg width="468" height="636" viewBox="0 0 468 636" fill="none" xmlns="http://www.w3.org/2000/svg">
<path d="M351.953 10.9807C420.077 87.356 461.869 169.159 466.615 235.435C468.66 263.759 463.958 288.852 452.519 310.022C440.256 332.819 420.272 351.026 393.125 364.151C331.04 394.201 276.099 444.308 222.966 492.813C172.249 539.112 124.339 582.839 70.5146 610.824C46.5552 623.282 23.3484 631.54 0 635.989V632.795C22.8526 628.408 45.5901 620.221 69.0625 608.03C122.443 580.292 170.125 536.799 220.623 490.737L220.624 490.736L220.903 490.482C274.16 441.834 329.278 391.531 391.788 361.321C418.333 348.489 437.847 330.728 449.783 308.527C460.85 287.891 465.49 263.376 463.507 235.657C458.796 170.067 417.288 88.9844 349.624 13.0807C345.693 8.67894 341.694 4.31871 337.627 0H341.921C345.315 3.62463 348.659 7.28485 351.953 10.9807Z" fill="#D8CABF"/>
<path d="M290.16 0C356.486 68.3222 405.715 152.074 413.047 223.262C418.899 280.185 397.366 324.126 350.766 350.349C301.407 378.121 255.141 420.308 210.388 461.116L210.26 461.233C162.819 504.541 113.767 549.247 60.8633 577.037C40.1622 587.902 20.081 595.599 0.0351562 600.36V597.13C19.5763 592.413 39.1971 584.859 59.42 574.252C111.928 546.671 160.794 502.111 208.059 459.012L208.06 459.011L208.17 458.91C253.087 417.906 299.536 375.576 349.252 347.609C372.831 334.341 389.902 316.509 399.969 294.609C409.346 274.232 412.701 250.34 409.948 223.582C403.643 162.432 365.464 88.5483 305.212 20.8668C298.849 13.7125 292.355 6.75688 285.733 0H290.16Z" fill="#D8CABF"/>
<path d="M262.579 26.1258C254.522 17.0672 246.211 8.3586 237.646 0H233.148C242.445 8.97852 251.511 18.402 260.25 28.2169C312.968 87.4449 347.809 153.827 355.875 210.332C363.57 264.453 346.57 307.192 306.708 333.914C269.981 358.518 235.184 390.579 198.333 424.536C136.46 481.566 73.1885 539.868 0 561.091V564.419C74.1359 543.25 138.001 484.404 200.458 426.849C237.203 392.982 271.92 361.001 308.417 336.53C349.35 309.087 366.855 265.289 358.939 209.887C350.82 152.786 315.695 85.8076 262.579 26.1258Z" fill="#D8CABF"/>
<path d="M184.441 0C195.796 10.3732 206.615 21.3237 216.856 32.8085C262.198 83.6453 293.958 142.606 303.972 194.618C314.509 249.281 301.396 293.559 266.068 322.684C243.648 341.132 221.22 362.557 197.472 385.243L197.471 385.245L196.377 386.29C150.335 430.337 102.646 475.88 49.3974 505.903C33.6821 514.869 17.1389 522.284 0 528.042V524.723C16.5894 519.067 32.6098 511.848 47.8479 503.162C100.752 473.326 148.263 427.926 194.207 384.012C218.397 360.894 241.249 339.057 264.067 320.255C298.456 291.904 311.189 248.676 300.882 195.223C290.966 143.745 259.48 85.3093 214.501 34.9086C203.562 22.638 191.957 10.984 179.74 0H184.441Z" fill="#D8CABF"/>
<path d="M170 38.4324C157.554 24.6162 144.084 11.7686 129.705 0H124.72C140.113 12.317 154.481 25.8757 167.68 40.5413C205.257 82.2127 232.546 130.691 244.526 177.079C251.175 202.822 252.804 226.794 249.378 248.338C245.712 271.304 236.335 290.934 221.496 306.676C216.74 311.708 211.984 316.799 207.015 322.118L204.558 324.749C161.146 371.27 111.837 424.037 55.4891 460.138C38.0238 471.511 19.4271 481.025 0 488.524V491.879C18.824 484.867 37.8811 475.182 57.1714 462.826C113.838 426.511 163.253 373.592 206.807 326.893C212.668 320.611 218.202 314.684 223.727 308.829C239.009 292.616 248.66 272.426 252.423 248.827C255.965 226.857 254.274 202.448 247.518 176.278C235.45 129.419 207.905 80.4775 170 38.4324Z" fill="#D8CABF"/>
<path d="M72.2411 0C90.2036 12.2179 106.725 26.449 121.488 42.4188C151.15 74.2842 174.949 113.491 188.505 152.84C197.776 179.704 202.061 205.456 201.238 229.366C200.361 254.789 193.703 276.821 181.457 294.832C153.54 335.898 107.463 392.999 46.5375 431.868C31.7934 441.365 16.2161 449.488 0 456.134V452.726C15.6175 446.245 30.6287 438.377 44.8552 429.216C105.382 390.633 151.123 333.878 178.872 293.07C190.79 275.54 197.227 254.086 198.112 229.268C198.918 205.75 194.694 180.371 185.557 153.854C172.134 114.923 148.573 76.1083 119.204 44.5634C103.538 27.5968 85.8566 12.63 66.5568 0H72.2411Z" fill="#D8CABF"/>
<path d="M125.508 123.332C111.846 93.5671 93.0484 66.3823 71.1698 44.6346C51.1417 24.7644 29.0948 9.78828 5.45417 0H0V1.17459C24.8802 10.7671 48.0339 26.0902 68.974 46.8681C90.587 68.3222 109.163 95.2222 122.666 124.649C135.061 151.603 142.897 180.051 145.385 206.906C147.935 234.331 144.783 259.47 136.266 279.58C114.086 332.01 72.9672 378.264 23.4547 406.472C15.8536 410.813 8.02388 414.737 0 418.227V421.661C8.56232 417.987 16.9104 413.828 25.0042 409.204C75.0922 380.666 116.698 333.869 139.143 280.808C147.856 260.217 151.096 234.536 148.502 206.613C145.979 179.41 138.028 150.606 125.508 123.332Z" fill="#D8CABF"/>
<path d="M33.4865 59.3348C50.6724 77.0783 65.0427 99.0396 76.1901 124.578C95.9349 169.898 103.824 224.339 96.7849 266.704C93.0211 290.231 84.0132 312.599 70.4349 332.134C57.4609 350.559 40.8472 366.099 21.6307 377.783C14.6774 382.056 7.45151 385.864 0 389.182V385.738C6.87492 382.618 13.5492 379.07 19.9839 375.114C38.8349 363.647 55.1345 348.402 67.8672 330.328C81.1758 311.174 90.0049 289.245 93.6948 266.179C100.645 224.392 92.8094 170.628 73.3302 125.877C62.3245 100.686 48.1667 79.0004 31.2464 61.5327C21.9053 51.8334 11.4108 43.3277 0 36.2078V32.5327C12.2646 39.9794 23.52 48.9881 33.4865 59.3348Z" fill="#D8CABF"/>
<path d="M54.3469 252.528C50.513 213.829 45.1562 169.23 29.8651 129.667C21.9406 109.201 11.9 91.7866 0 77.9673V82.7546C10.6604 95.8057 19.6444 111.823 26.9521 130.806C42.0927 169.959 47.4229 214.345 51.2302 252.839C55.0729 291.654 44.0318 321.945 18.4167 342.883C12.7029 347.51 6.53166 351.535 0 354.896V358.455C7.2401 354.839 14.0683 350.444 20.3646 345.348C46.874 323.68 58.2958 292.455 54.3469 252.528Z" fill="#D8CABF"/>
<path d="M0 198.701C3.13312 212.154 7.07153 225.404 11.7937 238.379C25.2875 274.471 23.4104 302.048 6.19792 320.343C4.27267 322.368 2.20105 324.248 0 325.967V321.909C1.366 320.73 2.67216 319.482 3.91354 318.172C20.2406 300.829 21.8964 274.356 8.85417 239.483C5.38333 230.175 2.52344 220.769 0 211.381V198.701Z" fill="#D8CABF"/>
</svg>
